<?xml version="1.0" encoding="UTF-8" standalone="no"?>
<!-- Generator: Adobe Illustrator 19.0.0, SVG Export Plug-In . SVG Version: 6.00 Build 0)  -->

<svg
   xmlns:dc="http://purl.org/dc/elements/1.1/"
   xmlns:cc="http://creativecommons.org/ns#"
   xmlns:rdf="http://www.w3.org/1999/02/22-rdf-syntax-ns#"
   xmlns:svg="http://www.w3.org/2000/svg"
   xmlns="http://www.w3.org/2000/svg"
   xmlns:sodipodi="http://sodipodi.sourceforge.net/DTD/sodipodi-0.dtd"
   xmlns:inkscape="http://www.inkscape.org/namespaces/inkscape"
   version="1.1"
   id="Capa_1"
   x="0px"
   y="0px"
   viewBox="0 0 512 512"
   style="enable-background:new 0 0 512 512;"
   xml:space="preserve"
   sodipodi:docname="organ1.svg"
   inkscape:version="0.92.4 (5da689c313, 2019-01-14)"><metadata
   id="metadata1483"><rdf:RDF><cc:Work
       rdf:about=""><dc:format>image/svg+xml</dc:format><dc:type
         rdf:resource="http://purl.org/dc/dcmitype/StillImage" /><dc:title></dc:title></cc:Work></rdf:RDF></metadata><defs
   id="defs1481" /><sodipodi:namedview
   pagecolor="#ffffff"
   bordercolor="#666666"
   borderopacity="1"
   objecttolerance="10"
   gridtolerance="10"
   guidetolerance="10"
   inkscape:pageopacity="0"
   inkscape:pageshadow="2"
   inkscape:window-width="1920"
   inkscape:window-height="1046"
   id="namedview1479"
   showgrid="false"
   inkscape:zoom="1.1366189"
   inkscape:cx="132.91136"
   inkscape:cy="134.78318"
   inkscape:window-x="-11"
   inkscape:window-y="-11"
   inkscape:window-maximized="1"
   inkscape:current-layer="Capa_1" />
<rect
   x="21"
   y="227"
   style="display:none;fill:#8f5040"
   width="470"
   height="89"
   id="rect1392" />
<rect
   x="461"
   y="227"
   style="display:none;fill:#75360d"
   width="30"
   height="89"
   id="rect1394" />
<rect
   x="61"
   y="100.98"
   style="display:none;fill:#ffce55"
   width="30"
   height="126.02"
   id="rect1396" />
<rect
   x="91"
   y="68.349998"
   style="display:none;fill:#ffbc38"
   width="30"
   height="158.64999"
   id="rect1398" />
<rect
   x="121"
   y="27.280001"
   style="display:none;fill:#ffce55"
   width="30"
   height="199.72"
   id="rect1400" />
<rect
   x="151"
   y="65.878998"
   style="display:none;fill:#ffbc38"
   width="30"
   height="161.12"
   id="rect1402" />
<rect
   x="181"
   y="100.98"
   style="display:none;fill:#ffce55"
   width="30"
   height="126.02"
   id="rect1404" />
<rect
   x="211"
   y="65.878998"
   style="display:none;fill:#ffbc38"
   width="30"
   height="161.12"
   id="rect1406" />
<rect
   x="241"
   y="21"
   style="display:none;fill:#ffce55"
   width="30"
   height="206"
   id="rect1408" />
<rect
   x="271"
   y="65.878998"
   style="display:none;fill:#ffbc38"
   width="30"
   height="161.12"
   id="rect1410" />
<rect
   x="301"
   y="100.98"
   style="display:none;fill:#ffce55"
   width="30"
   height="126.02"
   id="rect1412" />
<rect
   x="331"
   y="65.878998"
   style="display:none;fill:#ffbc38"
   width="30"
   height="161.12"
   id="rect1414" />
<rect
   x="361"
   y="27.280001"
   style="display:none;fill:#ffce55"
   width="30"
   height="199.72"
   id="rect1416" />
<rect
   x="391"
   y="68.349998"
   style="display:none;fill:#ffbc38"
   width="30"
   height="158.64999"
   id="rect1418" />
<rect
   x="421"
   y="100.98"
   style="display:none;fill:#ffce55"
   width="30"
   height="126.02"
   id="rect1420" />
<rect
   x="47"
   y="350"
   style="display:none;fill:#735458"
   width="418"
   height="141"
   id="rect1422" />
<g
   id="g1428"
   style="display:none">
	<rect
   x="17"
   y="350"
   style="fill:#8f5040"
   width="30"
   height="141"
   id="rect1424" />
	<rect
   x="465"
   y="350"
   style="fill:#8f5040"
   width="30"
   height="141"
   id="rect1426" />
</g>
<rect
   x="81.779999"
   y="290"
   style="display:none;fill:#ffbf7b"
   width="348.44"
   height="26"
   id="rect1430" />
<rect
   x="130.08"
   y="263.98999"
   style="display:none;fill:#ffdea9"
   width="251.85001"
   height="26"
   id="rect1432" />
<polygon
   style="display:none;fill:#a66856"
   points="37.5,315.995 37.5,289.995 7.5,289.995 7.5,349.995 504.5,349.995 504.5,289.995 474.5,289.995 474.5,315.995 "
   id="polygon1434" />
<rect
   x="474.5"
   y="290"
   style="display:none;fill:#8f5040"
   width="30"
   height="60"
   id="rect1436" />
<rect
   x="133.03"
   y="417"
   style="display:none;fill:#a66856"
   width="245.92999"
   height="74"
   id="rect1438" />
<rect
   x="348.95999"
   y="417"
   style="display:none;fill:#8f5040"
   width="30"
   height="74"
   id="rect1440" />
<rect
   x="112"
   y="387"
   style="display:none;fill:#f3b573"
   width="288"
   height="30"
   id="rect1442" />
<rect
   x="370"
   y="387"
   style="display:none;fill:#f5a257"
   width="30"
   height="30"
   id="rect1444" />

<g
   id="g1448">
</g>
<g
   id="g1450">
</g>
<g
   id="g1452">
</g>
<g
   id="g1454"
   style="display:inline">
</g>
<g
   id="g1456">
</g>
<g
   id="g1458">
</g>
<g
   id="g1460">
</g>
<g
   id="g1462">
</g>
<g
   id="g1464">
</g>
<g
   id="g1466">
</g>
<g
   id="g1468">
</g>
<g
   id="g1470"
   style="display:inline"><g
   id="g1476"
   style="display:inline">
</g>
</g>
<g
   id="g1472">
</g>
<g
   id="g1474"
   style="display:inline">
</g><path
   style="display:inline;fill:#ff0000;stroke-width:1.01449955"
   d="M 0 -1.8671875 L 0 289.99414 C 0 285.85114 3.358 282.49414 7.5 282.49414 L 13.5 282.49414 L 13.5 227 C 13.5 222.857 16.858 219.5 21 219.5 L 53.5 219.5 L 53.5 100.98047 C 53.5 96.837468 56.858 93.480469 61 93.480469 L 83.5 93.480469 L 83.5 68.353516 C 83.5 64.210516 86.858 60.853516 91 60.853516 L 113.5 60.853516 L 113.5 27.277344 C 113.5 23.134344 116.858 19.777344 121 19.777344 L 151 19.777344 C 155.142 19.777344 158.5 23.134344 158.5 27.277344 L 158.5 58.378906 L 181 58.378906 C 185.142 58.378906 188.5 61.735906 188.5 65.878906 L 188.5 93.482422 L 203.5 93.482422 L 203.5 65.878906 C 203.5 61.735906 206.858 58.378906 211 58.378906 L 233.5 58.378906 L 233.5 21 C 233.5 16.857 236.858 13.5 241 13.5 L 271 13.5 C 275.142 13.5 278.5 16.857 278.5 21 L 278.5 58.378906 L 301 58.378906 C 305.142 58.378906 308.5 61.735906 308.5 65.878906 L 308.5 93.482422 L 323.5 93.482422 L 323.5 65.878906 C 323.5 61.735906 326.858 58.378906 331 58.378906 L 353.5 58.378906 L 353.5 27.277344 C 353.5 23.134344 356.858 19.777344 361 19.777344 L 391 19.777344 C 395.142 19.777344 398.5 23.134344 398.5 27.277344 L 398.5 60.853516 L 421 60.853516 C 425.142 60.853516 428.5 64.210516 428.5 68.353516 L 428.5 93.480469 L 451 93.480469 C 455.142 93.480469 458.5 96.837468 458.5 100.98047 L 458.5 219.5 L 491 219.5 C 495.142 219.5 498.5 222.857 498.5 227 L 498.5 282.49414 L 504.5 282.49414 C 508.642 282.49414 512 285.85214 512 289.99414 L 512 349.99414 C 512 354.13714 508.642 357.49414 504.5 357.49414 L 502.5 357.49414 L 502.5 443.125 C 502.5 447.268 499.142 450.625 495 450.625 C 490.858 450.625 487.5 447.268 487.5 443.125 L 487.5 357.5 L 472.5 357.5 L 472.5 483.5 L 487.5 483.5 L 487.5 475 C 487.5 470.857 490.858 467.5 495 467.5 C 499.142 467.5 502.5 470.857 502.5 475 L 502.5 491 C 502.5 495.143 499.142 498.5 495 498.5 L 17 498.5 C 12.858 498.5 9.5 495.143 9.5 491 L 9.5 410.66797 C 9.5 406.52497 12.858 403.16797 17 403.16797 C 21.142 403.16797 24.5 406.52497 24.5 410.66797 L 24.5 483.5 L 39.5 483.5 L 39.5 357.5 L 24.5 357.5 L 24.5 378.33203 C 24.5 382.47503 21.142 385.83203 17 385.83203 C 12.858 385.83203 9.5 382.47503 9.5 378.33203 L 9.5 357.49414 L 7.5 357.49414 C 3.358 357.49414 0 354.13714 0 349.99414 L 0 522.57617 L 519.46484 522.57617 L 519.46484 -1.8671875 L 0 -1.8671875 z M 248.5 28.5 L 248.5 65.878906 L 248.5 219.5 L 263.5 219.5 L 263.5 65.878906 L 263.5 28.5 L 248.5 28.5 z M 128.5 34.777344 L 128.5 68.353516 L 128.5 219.5 L 143.5 219.5 L 143.5 65.878906 L 143.5 34.777344 L 128.5 34.777344 z M 368.5 34.777344 L 368.5 65.878906 L 368.5 219.5 L 383.5 219.5 L 383.5 68.353516 L 383.5 34.777344 L 368.5 34.777344 z M 158.5 73.378906 L 158.5 219.5 L 173.5 219.5 L 173.5 100.98242 L 173.5 73.378906 L 158.5 73.378906 z M 218.5 73.378906 L 218.5 100.98047 L 218.5 219.5 L 233.5 219.5 L 233.5 73.378906 L 218.5 73.378906 z M 278.5 73.378906 L 278.5 219.5 L 293.5 219.5 L 293.5 100.98242 L 293.5 73.378906 L 278.5 73.378906 z M 338.5 73.378906 L 338.5 100.98047 L 338.5 219.5 L 353.5 219.5 L 353.5 73.378906 L 338.5 73.378906 z M 98.5 75.853516 L 98.5 100.98047 L 98.5 219.5 L 113.5 219.5 L 113.5 75.853516 L 98.5 75.853516 z M 398.5 75.853516 L 398.5 219.5 L 413.5 219.5 L 413.5 100.98242 L 413.5 75.853516 L 398.5 75.853516 z M 68.5 108.48047 L 68.5 219.5 L 83.5 219.5 L 83.5 108.48047 L 68.5 108.48047 z M 188.5 108.48047 L 188.5 219.5 L 203.5 219.5 L 203.5 108.48047 L 188.5 108.48047 z M 308.5 108.48047 L 308.5 219.5 L 323.5 219.5 L 323.5 108.48047 L 308.5 108.48047 z M 428.5 108.48047 L 428.5 219.5 L 443.5 219.5 L 443.5 108.48047 L 428.5 108.48047 z M 28.5 234.5 L 28.5 282.49414 L 37.5 282.49414 C 41.642 282.49414 45 285.85114 45 289.99414 L 45 308.49414 L 74.279297 308.49414 L 74.279297 290 C 74.279297 285.857 77.637297 282.5 81.779297 282.5 L 122.57617 282.5 L 122.57617 263.99023 C 122.57617 259.84723 125.93417 256.49023 130.07617 256.49023 L 320 256.49023 C 324.142 256.49023 327.5 259.84723 327.5 263.99023 C 327.5 268.13323 324.142 271.49023 320 271.49023 L 137.57617 271.49023 L 137.57617 282.49023 L 374.42383 282.49023 L 374.42383 271.49023 L 352 271.49023 C 347.858 271.49023 344.5 268.13323 344.5 263.99023 C 344.5 259.84723 347.858 256.49023 352 256.49023 L 381.92578 256.49023 C 386.06778 256.49023 389.42578 259.84723 389.42578 263.99023 L 389.42578 282.5 L 430.2207 282.5 C 434.3627 282.5 437.7207 285.857 437.7207 290 L 437.7207 308.49414 L 467 308.49414 L 467 289.99414 C 467 285.85114 470.358 282.49414 474.5 282.49414 L 483.5 282.49414 L 483.5 234.5 L 28.5 234.5 z M 15 297.49414 L 15 342.49414 L 497 342.49414 L 497 297.49414 L 482 297.49414 L 482 315.99414 C 482 320.13714 478.642 323.49414 474.5 323.49414 L 37.5 323.49414 C 33.358 323.49414 30 320.13714 30 315.99414 L 30 297.49414 L 15 297.49414 z M 89.279297 297.5 L 89.279297 308.49414 L 422.7207 308.49414 L 422.7207 297.5 L 89.279297 297.5 z M 54.5 357.5 L 54.5 483.5 L 125.53516 483.5 L 125.53516 424.5 L 112 424.5 C 107.858 424.5 104.5 421.143 104.5 417 L 104.5 387 C 104.5 382.857 107.858 379.5 112 379.5 L 400 379.5 C 404.142 379.5 407.5 382.857 407.5 387 L 407.5 417 C 407.5 421.143 404.142 424.5 400 424.5 L 386.46484 424.5 L 386.46484 483.5 L 457.5 483.5 L 457.5 357.5 L 54.5 357.5 z M 119.5 394.5 L 119.5 409.5 L 392.5 409.5 L 392.5 394.5 L 119.5 394.5 z M 140.53516 424.5 L 140.53516 483.5 L 371.46484 483.5 L 371.46484 424.5 L 140.53516 424.5 z M 222.71484 436.0918 C 225.11067 436.0918 228.3008 436.58008 232.28516 437.55664 C 234.08202 436.68424 236.17188 436.24805 238.55469 436.24805 C 240.32551 436.24805 241.83594 436.48893 243.08594 436.9707 C 244.33593 437.43945 244.96094 438.01237 244.96094 438.68945 C 244.96094 439.56185 244.16015 439.99805 242.55859 439.99805 C 241.29558 439.99805 238.29425 439.41211 233.55469 438.24023 C 231.34115 439.50326 230.23438 441.0918 230.23438 443.00586 C 230.23437 443.93034 230.55339 444.56836 231.19141 444.91992 C 232.11588 444.8418 232.8125 444.80273 233.28125 444.80273 C 234.63541 444.80273 235.3125 444.96549 235.3125 445.29102 C 235.3125 445.49935 234.95442 445.60352 234.23828 445.60352 C 233.32683 445.60352 232.33724 445.47331 231.26953 445.21289 C 229.82422 445.42122 228.14452 445.98112 226.23047 446.89258 C 221.3607 449.22331 218.92773 452.24414 218.92773 455.95508 C 218.92773 458.41602 220.25392 459.97852 222.91016 460.64258 C 222.42839 459.84831 222.1875 458.93034 222.1875 457.88867 C 222.1875 455.32357 223.4961 452.96029 226.11328 450.79883 C 228.73046 448.63737 231.59506 447.55664 234.70703 447.55664 C 236.13932 447.55664 237.27865 447.9082 238.125 448.61133 C 238.97135 449.31445 239.39453 450.25846 239.39453 451.44336 C 239.39453 453.98242 238.00129 456.27409 235.21484 458.31836 C 232.4284 460.34961 229.29035 461.36523 225.80078 461.36523 C 225.09766 461.36523 224.4401 461.32617 223.82812 461.24805 C 225.07812 462.92773 226.9336 463.76758 229.39453 463.76758 C 230.91796 463.76758 232.16146 463.53971 233.125 463.08398 L 233.35938 463.04492 C 233.4375 463.07096 233.47656 463.12305 233.47656 463.20117 C 233.47656 463.38346 232.99479 463.57227 232.03125 463.76758 C 231.06771 463.97591 230.1888 464.08008 229.39453 464.08008 C 226.67319 464.08008 224.59635 463.09701 223.16406 461.13086 C 221.17188 460.68815 219.61132 459.93945 218.47852 458.88477 C 217.35873 457.81706 216.79883 456.58008 216.79883 455.17383 C 216.79883 453.28581 217.58008 451.52148 219.14258 449.88086 C 220.70507 448.22721 222.78647 446.97721 225.39062 446.13086 C 226.96614 445.61003 228.76954 445.23242 230.80078 444.99805 C 229.35547 444.38607 228.63281 443.41602 228.63281 442.08789 C 228.63281 440.38216 229.68751 438.95638 231.79688 437.81055 C 228.77605 437.08138 226.28254 436.7168 224.31641 436.7168 C 220.46226 436.7168 217.17642 437.68034 214.45508 439.60742 C 211.74676 441.53451 210.39258 443.86523 210.39258 446.59961 C 210.39258 447.82357 210.75065 448.87174 211.4668 449.74414 C 212.18294 450.61654 213.04232 451.05273 214.04492 451.05273 C 214.73502 451.05273 215.08008 450.94206 215.08008 450.7207 C 215.08008 450.60352 214.95638 450.56445 214.70898 450.60352 C 214.01888 450.60352 213.67383 450.28451 213.67383 449.64648 C 213.67383 449.2819 213.82357 448.9694 214.12305 448.70898 C 214.43555 448.44857 214.80664 448.31836 215.23633 448.31836 C 216.06966 448.31836 216.48633 448.72201 216.48633 449.5293 C 216.48633 450.06315 216.24544 450.51888 215.76367 450.89648 C 215.29492 451.26107 214.722 451.44336 214.04492 451.44336 C 212.83399 451.44336 211.79882 450.90299 210.93945 449.82227 C 210.0931 448.72852 209.66992 447.41341 209.66992 445.87695 C 209.66992 443.57227 210.67253 441.45638 212.67773 439.5293 C 215.06054 437.23763 218.40497 436.0918 222.71484 436.0918 z M 239.23828 436.7168 C 237.32423 436.7168 235.57942 437.13346 234.00391 437.9668 C 237.45441 439.08659 240.35808 439.64648 242.71484 439.64648 C 243.9388 439.64648 244.55078 439.31445 244.55078 438.65039 C 244.55078 438.14258 244.01041 437.69336 242.92969 437.30273 C 241.86198 436.91211 240.6315 436.7168 239.23828 436.7168 z M 279.55078 440.60352 C 274.08205 449.70508 270.89192 455.05664 269.98047 456.6582 C 269.08203 458.25977 268.63281 459.32096 268.63281 459.8418 C 268.63281 460.42773 268.88021 460.7207 269.375 460.7207 C 270.45473 460.7207 272.43088 458.69048 275.28711 454.66797 L 277.94922 450.17383 C 278.2487 450.22591 278.59375 450.25195 278.98438 450.25195 C 279.32292 450.25195 279.79167 450.20638 280.39062 450.11523 L 276.54297 456.36523 C 275.44922 458.13607 274.90234 459.29492 274.90234 459.8418 C 274.90234 460.42773 275.16927 460.7207 275.70312 460.7207 C 277.10937 460.7207 279.27085 458.22721 282.1875 453.24023 L 283.98438 450.17383 C 284.28385 450.22591 284.64844 450.25195 285.07812 450.25195 C 285.42969 450.25195 285.86589 450.20638 286.38672 450.11523 C 284.77214 452.68034 282.58462 456.44336 279.82422 461.4043 C 281.41275 460.58398 282.75391 459.69857 283.84766 458.74805 C 284.9414 457.78451 286.16537 456.43034 287.51953 454.68555 C 287.56547 454.62649 287.59515 454.59691 287.63281 454.55273 C 288.5119 453.37172 289.86988 452.26843 291.73828 451.24805 C 293.28775 450.38867 294.53776 449.95898 295.48828 449.95898 C 296.29557 449.95898 296.69922 450.34961 296.69922 451.13086 C 296.69922 451.35221 296.64713 451.64518 296.54297 452.00977 L 297.53906 450.11523 C 297.92969 450.20638 298.27474 450.25195 298.57422 450.25195 C 298.92578 450.25195 299.38151 450.20638 299.94141 450.11523 L 296.48438 455.83789 C 295.28646 457.8431 294.6875 459.16471 294.6875 459.80273 C 294.6875 460.41471 294.94141 460.7207 295.44922 460.7207 C 295.97005 460.7207 296.80339 460.12826 297.94922 458.94336 C 299.09505 457.74544 300.26042 456.27409 301.44531 454.5293 C 301.52344 454.39909 301.59505 454.33398 301.66016 454.33398 C 301.73828 454.33398 301.77734 454.37305 301.77734 454.45117 C 301.77734 454.72461 300.82682 455.98763 298.92578 458.24023 C 297.38933 460.08919 296.17838 461.01367 295.29297 461.01367 C 294.69401 461.01367 294.20573 460.79232 293.82812 460.34961 C 293.45052 459.89388 293.26172 459.32747 293.26172 458.65039 C 293.26172 457.94727 293.47005 457.18555 293.88672 456.36523 C 292.58464 458.18815 291.58854 459.41862 290.89844 460.05664 C 290.20834 460.69466 289.53776 461.01367 288.88672 461.01367 C 288.19662 461.01367 287.61719 460.7207 287.14844 460.13477 C 286.67969 459.53581 286.44531 458.78711 286.44531 457.88867 C 286.44531 457.24608 286.56765 456.62232 286.80078 456.01758 C 286.50111 456.3673 286.26678 456.65344 285.83984 457.12695 C 284.25131 458.87174 282.18098 460.44727 279.62891 461.85352 L 278.67188 463.57227 C 276.78386 466.95768 274.81119 469.47721 272.75391 471.13086 C 270.63152 472.83659 268.78906 473.68945 267.22656 473.68945 C 266.69271 473.68945 266.25 473.52018 265.89844 473.18164 C 265.53386 472.8431 265.35156 472.42643 265.35156 471.93164 C 265.35156 469.31445 268.36591 466.60612 274.39453 463.80664 C 274.88932 463.55924 275.63151 463.21419 276.62109 462.77148 L 276.91406 462.5957 L 280.35156 456.48242 C 278.9974 458.3444 278.01432 459.56836 277.40234 460.1543 C 276.79037 460.72721 276.17187 461.01367 275.54688 461.01367 C 275.01302 461.01367 274.54427 460.78581 274.14062 460.33008 C 273.75 459.87435 273.55469 459.34049 273.55469 458.72852 C 273.55469 458.16595 273.82432 457.36167 274.35547 456.32031 C 272.06181 459.41776 270.33752 461.01367 269.21875 461.01367 C 268.65886 461.01367 268.19661 460.80534 267.83203 460.38867 C 267.48047 459.95898 267.30469 459.41862 267.30469 458.76758 C 267.30469 458.05143 267.46745 457.36133 267.79297 456.69727 C 267.86521 456.55278 268.11909 456.11889 268.26367 455.85938 L 268.22266 455.91602 C 265.77475 459.31445 263.90624 461.01367 262.61719 461.01367 C 262.00521 461.01367 261.49088 460.79883 261.07422 460.36914 C 260.67057 459.92643 260.46875 459.37956 260.46875 458.72852 C 260.46875 458.07248 260.82984 457.103 261.50781 455.85742 L 261.46484 455.91602 C 259.01694 459.31445 257.20703 461.01367 256.03516 461.01367 C 255.42318 461.01367 254.92187 460.78581 254.53125 460.33008 C 254.14063 459.87435 253.94531 459.28841 253.94531 458.57227 C 253.94531 457.8431 254.19271 457.05534 254.6875 456.20898 C 254.77865 456.05273 255.25391 455.35612 256.11328 454.11914 C 257.20703 452.55664 257.75391 451.53451 257.75391 451.05273 C 257.75391 450.51888 257.48698 450.25195 256.95312 450.25195 C 255.23438 450.25195 252.28514 453.7806 248.10547 460.83789 C 247.84505 460.78581 247.48698 460.75977 247.03125 460.75977 C 246.4974 460.75977 246.04167 460.78581 245.66406 460.83789 L 248.4375 456.44336 C 250.24739 453.55273 251.15234 451.7819 251.15234 451.13086 C 251.15234 450.54492 250.91146 450.25195 250.42969 450.25195 C 249.71354 450.25195 248.54166 451.2806 246.91406 453.33789 C 245.28646 455.39518 243.67187 457.89518 242.07031 460.83789 C 241.77083 460.78581 241.38672 460.75977 240.91797 460.75977 C 240.41016 460.75977 239.96745 460.78581 239.58984 460.83789 L 242.38281 456.44336 C 244.30989 453.42253 245.27344 451.55404 245.27344 450.83789 C 245.27344 450.44727 245.1237 450.25195 244.82422 450.25195 C 244.1862 450.25195 242.86458 451.65169 240.85938 454.45117 C 240.72917 454.63346 240.625 454.72461 240.54688 454.72461 C 240.49479 454.71159 240.46875 454.67253 240.46875 454.60742 C 240.46875 454.49023 241.06771 453.67643 242.26562 452.16602 C 243.4375 450.69466 244.34245 449.95898 244.98047 449.95898 C 245.39713 449.95898 245.75521 450.16081 246.05469 450.56445 C 246.35417 450.95508 246.50391 451.42383 246.50391 451.9707 C 246.50391 452.72591 246.11979 453.77409 245.35156 455.11523 C 247.6953 451.67773 249.44011 449.95898 250.58594 449.95898 C 251.13281 449.95898 251.58203 450.18034 251.93359 450.62305 C 252.28515 451.06576 252.46094 451.61914 252.46094 452.2832 C 252.46094 453.02539 252.11588 453.9694 251.42578 455.11523 C 253.89973 451.67773 255.75521 449.95898 256.99219 449.95898 C 257.55208 449.95898 258.02083 450.19987 258.39844 450.68164 C 258.78906 451.16341 258.98438 451.74935 258.98438 452.43945 C 258.98438 453.24674 258.66536 454.19076 258.02734 455.27148 C 258.01432 455.28451 257.45442 456.11784 256.34766 457.77148 C 255.70964 458.70898 255.39062 459.42513 255.39062 459.91992 C 255.39062 460.45378 255.65755 460.7207 256.19141 460.7207 C 257.20703 460.7207 258.88673 459.08008 261.23047 455.79883 L 261.83594 454.95898 L 262.1875 454.5293 C 262.2513 454.40169 262.3151 454.33849 262.37891 454.33594 L 264.86328 450.11523 C 265.26693 450.20638 265.58594 450.25195 265.82031 450.25195 C 266.17187 450.25195 266.66667 450.20638 267.30469 450.11523 L 262.87109 457.40039 C 262.23308 458.45508 261.91406 459.26888 261.91406 459.8418 C 261.91406 460.42773 262.22005 460.7207 262.83203 460.7207 C 263.99088 460.7207 266.02866 458.6569 268.94531 454.5293 C 269.00781 454.4043 269.07031 454.34289 269.13281 454.33789 C 269.67761 453.40933 270.32695 452.31382 271.19141 450.87695 C 273.54817 446.95768 275.53386 443.55924 277.14844 440.68164 C 277.53906 440.78581 277.88412 440.83789 278.18359 440.83789 C 278.67838 440.83789 279.13412 440.75977 279.55078 440.60352 z M 268.14453 445.52539 C 268.70442 445.52539 268.98437 445.80534 268.98438 446.36523 C 268.98438 446.82096 268.78906 447.25065 268.39844 447.6543 C 268.02083 448.04492 267.60416 448.24023 267.14844 448.24023 C 266.5625 448.24023 266.26953 447.94727 266.26953 447.36133 C 266.26953 446.93164 266.47136 446.52148 266.875 446.13086 C 267.27864 445.72721 267.70182 445.52539 268.14453 445.52539 z M 235.11719 448.04492 C 232.31772 448.04492 229.58332 449.21029 226.91406 451.54102 C 224.2448 453.85872 222.91016 456.22852 222.91016 458.65039 C 222.91016 459.35352 223.125 460.06966 223.55469 460.79883 C 224.30989 460.94206 225.00651 461.01367 225.64453 461.01367 C 228.71744 461.01367 231.71876 459.95247 234.64844 457.83008 C 237.57811 455.69466 239.04297 453.51367 239.04297 451.28711 C 239.04297 450.34961 238.67187 449.57487 237.92969 448.96289 C 237.1875 448.35091 236.25 448.04492 235.11719 448.04492 z M 295.52734 450.25195 C 294.32943 450.25195 292.7539 451.42383 290.80078 453.76758 C 288.86068 456.11133 287.89062 458.00586 287.89062 459.45117 C 287.89062 460.29753 288.26823 460.7207 289.02344 460.7207 C 289.92187 460.7207 291.47787 459.22982 293.69141 456.24805 C 295.50129 453.80013 296.40625 452.12044 296.40625 451.20898 C 296.40625 450.57096 296.11328 450.25195 295.52734 450.25195 z M 276.71875 462.92773 C 276.51042 463.04492 275.77473 463.41602 274.51172 464.04102 C 268.58726 466.98372 265.625 469.62695 265.625 471.9707 C 265.625 472.94727 266.17188 473.43555 267.26562 473.43555 C 268.64583 473.43555 270.01954 472.68685 271.38672 471.18945 C 272.7539 469.69206 274.44662 467.06836 276.46484 463.31836 L 276.71875 462.92773 z "
   id="rect1858" />

</svg>