<?xml version="1.0" encoding="UTF-8" standalone="no"?>
<!-- Generator: Adobe Illustrator 19.0.0, SVG Export Plug-In . SVG Version: 6.00 Build 0)  -->

<svg
   xmlns:dc="http://purl.org/dc/elements/1.1/"
   xmlns:cc="http://creativecommons.org/ns#"
   xmlns:rdf="http://www.w3.org/1999/02/22-rdf-syntax-ns#"
   xmlns:svg="http://www.w3.org/2000/svg"
   xmlns="http://www.w3.org/2000/svg"
   xmlns:sodipodi="http://sodipodi.sourceforge.net/DTD/sodipodi-0.dtd"
   xmlns:inkscape="http://www.inkscape.org/namespaces/inkscape"
   version="1.1"
   id="Capa_1"
   x="0px"
   y="0px"
   viewBox="0 0 512 512"
   style="enable-background:new 0 0 512 512;"
   xml:space="preserve"
   sodipodi:docname="organ line.svg"
   inkscape:version="0.92.4 (5da689c313, 2019-01-14)"><metadata
   id="metadata93"><rdf:RDF><cc:Work
       rdf:about=""><dc:format>image/svg+xml</dc:format><dc:type
         rdf:resource="http://purl.org/dc/dcmitype/StillImage" /><dc:title></dc:title></cc:Work></rdf:RDF></metadata><defs
   id="defs91" /><sodipodi:namedview
   pagecolor="#ffffff"
   bordercolor="#666666"
   borderopacity="1"
   objecttolerance="10"
   gridtolerance="10"
   guidetolerance="10"
   inkscape:pageopacity="0"
   inkscape:pageshadow="2"
   inkscape:window-width="1920"
   inkscape:window-height="1046"
   id="namedview89"
   showgrid="false"
   inkscape:zoom="0.4609375"
   inkscape:cx="388.33898"
   inkscape:cy="242.76246"
   inkscape:window-x="-11"
   inkscape:window-y="-11"
   inkscape:window-maximized="1"
   inkscape:current-layer="Capa_1" />

























<path
   d="m 356.25848,267.53979 h -3.1017 v -28.6881 c 0,-2.14172 -1.73591,-3.87711 -3.87712,-3.87711 h -16.80084 v -61.2683 c 0,-2.14172 -1.73592,-3.87712 -3.87712,-3.87712 h -11.63136 v -12.98938 c 0,-2.14172 -1.73591,-3.87712 -3.87712,-3.87712 h -11.63135 v -17.35708 c 0,-2.14172 -1.73592,-3.87712 -3.87712,-3.87712 h -15.50848 c -2.1412,0 -3.87711,1.7354 -3.87711,3.87712 v 16.07763 H 266.5678 c -2.1412,0 -3.87712,1.7354 -3.87712,3.87712 v 14.26935 h -7.75424 v -14.26935 c 0,-2.14172 -1.73591,-3.87712 -3.87712,-3.87712 h -11.63135 v -19.32304 c 0,-2.14172 -1.73592,-3.87712 -3.87712,-3.87712 h -15.50847 c -2.14121,0 -3.87712,1.7354 -3.87712,3.87712 v 19.32304 H 204.5339 c -2.1412,0 -3.87712,1.7354 -3.87712,3.87712 v 14.26935 h -7.75424 v -14.26935 c 0,-2.14172 -1.73591,-3.87712 -3.87712,-3.87712 h -11.63135 v -16.07763 c 0,-2.14172 -1.73592,-3.87712 -3.87712,-3.87712 h -15.50848 c -2.1412,0 -3.87711,1.7354 -3.87711,3.87712 v 17.35656 H 142.5 c -2.1412,0 -3.87712,1.7354 -3.87712,3.87712 v 12.9899 h -11.63135 c -2.14121,0 -3.87712,1.7354 -3.87712,3.87712 v 61.2683 h -16.80085 c -2.1412,0 -3.87712,1.73539 -3.87712,3.87711 v 28.6881 h -3.101694 c -2.141204,0 -3.877119,1.7354 -3.877119,3.87712 v 31.01695 c 0,2.14172 1.735915,3.87711 3.877119,3.87711 h 1.033894 v 10.77219 c 0,2.14172 1.73592,3.87712 3.87712,3.87712 2.14121,0 3.87712,-1.7354 3.87712,-3.87712 v -10.7696 h 7.75424 v 65.13559 h -7.75424 v -37.65096 c 0,-2.14172 -1.73591,-3.87711 -3.87712,-3.87711 -2.1412,0 -3.87712,1.73539 -3.87712,3.87711 v 41.52808 c 0,2.14172 1.73592,3.87712 3.87712,3.87712 v 0 0 h 247.1017 v 0 0 c 2.1412,0 3.87712,-1.7354 3.87712,-3.87712 v -8.27119 c 0,-2.14172 -1.73592,-3.87711 -3.87712,-3.87711 -2.1412,0 -3.87712,1.73539 -3.87712,3.87711 v 4.39407 h -7.75424 v -65.13559 h 7.75424 v 44.26377 c 0,2.14172 1.73592,3.87712 3.87712,3.87712 2.1412,0 3.87712,-1.7354 3.87712,-3.87712 v -44.26636 h 1.0339 c 2.1412,0 3.87712,-1.73539 3.87712,-3.87711 v -31.01695 c 0,-2.14121 -1.73592,-3.87712 -3.87712,-3.87712 z m -253.04662,7.75423 h 7.75424 v 9.56356 c 0,2.14172 1.73592,3.87712 3.87712,3.87712 v 0 c 0.0171,0 -0.0171,0 0,0 H 340.75 c 0.0171,0 -0.0171,0 0,0 v 0 c 2.14121,0 3.87712,-1.7354 3.87712,-3.87712 v -9.56356 h 7.75424 v 23.26272 h -249.1695 z m 210.77103,0.003 v 5.68386 H 141.61033 v -5.68386 z m 10.74169,-97.71321 v 57.39118 h -7.75424 V 177.5834 Z m -15.50848,-16.8665 v 12.9899 61.26778 h -7.75423 V 160.7169 Z m -23.26271,-21.23462 h 7.75424 v 17.35657 78.13532 h -7.75424 v -79.41425 z m -15.50847,19.95476 h 7.75424 v 75.53713 h -7.75424 v -61.2683 z m -7.75424,18.14595 v 57.39118 h -7.75424 V 177.5834 Z m -15.50847,-18.14595 v 14.26935 61.26778 h -7.75424 v -75.53713 z m -23.26272,-23.20016 h 7.75424 v 19.32304 79.41425 h -7.75424 v -79.41425 z m -15.50847,23.20016 h 7.75424 v 75.53713 h -7.75424 v -61.2683 z m -7.75424,18.14595 v 57.39118 h -7.75424 V 177.5834 Z m -15.50847,-18.14595 v 14.26935 61.26778 h -7.75424 v -75.53713 z m -23.26272,-19.95476 h 7.75424 v 16.07764 79.41425 h -7.75424 v -78.1348 z m -15.50847,21.23421 h 7.75424 v 74.25768 h -7.75424 v -61.2683 z m -15.50848,16.8665 h 7.75424 v 57.39118 h -7.75424 z m 214.53391,65.14541 v 24.81098 H 340.75 c -2.1412,0 -3.87712,1.7354 -3.87712,3.87712 v 9.56356 h -15.13575 v -9.56098 c 0,-2.14172 -1.73592,-3.87712 -3.87712,-3.87712 h -21.08946 v -9.56873 c 0,-2.14172 -1.73591,-3.87712 -3.87711,-3.87712 h -15.46971 c -2.1412,0 -3.87712,1.7354 -3.87712,3.87712 0,2.14172 1.73592,3.87712 3.87712,3.87712 h 11.59207 v 5.68644 H 166.57742 v -5.68644 h 94.30394 c 2.1412,0 3.87712,-1.7354 3.87712,-3.87712 0,-2.14172 -1.73592,-3.87712 -3.87712,-3.87712 h -98.18105 c -2.14121,0 -3.87712,1.7354 -3.87712,3.87712 v 9.56873 h -21.08998 c -2.1412,0 -3.87712,1.7354 -3.87712,3.87712 v 9.56098 h -15.13575 v -9.56356 c 0,-2.14172 -1.73592,-3.87712 -3.87712,-3.87712 h -4.65254 v -24.81098 h 235.21187 m -221.77119,63.58475 h 208.33051 v 65.13559 h -36.72149 v -30.5 h 6.99691 c 2.1412,0 3.87712,-1.7354 3.87712,-3.87712 v -15.50847 c 0,-2.14172 -1.73592,-3.87712 -3.87712,-3.87712 H 153.35593 c -2.1412,0 -3.87712,1.7354 -3.87712,3.87712 v 15.50847 c 0,2.14172 1.73592,3.87712 3.87712,3.87712 h 6.99691 v 30.5 h -36.72148 z m 33.60169,26.88135 v -7.75423 h 141.12712 v 7.75423 0 z m 10.87403,38.25424 v -30.5 h 119.37907 v 30.5 z"
   id="path56"
   inkscape:connector-curvature="0"
   style="stroke-width:0.51694918" />















</svg>