<?xml version="1.0" encoding="UTF-8" standalone="no"?>
<!-- Generator: Adobe Illustrator 19.0.0, SVG Export Plug-In . SVG Version: 6.00 Build 0)  -->

<svg
   xmlns:dc="http://purl.org/dc/elements/1.1/"
   xmlns:cc="http://creativecommons.org/ns#"
   xmlns:rdf="http://www.w3.org/1999/02/22-rdf-syntax-ns#"
   xmlns:svg="http://www.w3.org/2000/svg"
   xmlns="http://www.w3.org/2000/svg"
   xmlns:sodipodi="http://sodipodi.sourceforge.net/DTD/sodipodi-0.dtd"
   xmlns:inkscape="http://www.inkscape.org/namespaces/inkscape"
   version="1.1"
   id="Capa_1"
   x="0px"
   y="0px"
   viewBox="0 0 512 512"
   style="enable-background:new 0 0 512 512;"
   xml:space="preserve"
   sodipodi:docname="organ0.svg"
   inkscape:version="0.92.4 (5da689c313, 2019-01-14)"><metadata
   id="metadata1483"><rdf:RDF><cc:Work
       rdf:about=""><dc:format>image/svg+xml</dc:format><dc:type
         rdf:resource="http://purl.org/dc/dcmitype/StillImage" /><dc:title></dc:title></cc:Work></rdf:RDF></metadata><defs
   id="defs1481" /><sodipodi:namedview
   pagecolor="#ffffff"
   bordercolor="#666666"
   borderopacity="1"
   objecttolerance="10"
   gridtolerance="10"
   guidetolerance="10"
   inkscape:pageopacity="0"
   inkscape:pageshadow="2"
   inkscape:window-width="1920"
   inkscape:window-height="1046"
   id="namedview1479"
   showgrid="false"
   inkscape:zoom="1.6074219"
   inkscape:cx="230.6423"
   inkscape:cy="214.4984"
   inkscape:window-x="-11"
   inkscape:window-y="-11"
   inkscape:window-maximized="1"
   inkscape:current-layer="Capa_1" />
<rect
   x="21"
   y="227"
   style="display:none;fill:#8f5040"
   width="470"
   height="89"
   id="rect1392" />
<rect
   x="461"
   y="227"
   style="display:none;fill:#75360d"
   width="30"
   height="89"
   id="rect1394" />
<rect
   x="61"
   y="100.98"
   style="display:none;fill:#ffce55"
   width="30"
   height="126.02"
   id="rect1396" />
<rect
   x="91"
   y="68.349998"
   style="display:none;fill:#ffbc38"
   width="30"
   height="158.64999"
   id="rect1398" />
<rect
   x="121"
   y="27.280001"
   style="display:none;fill:#ffce55"
   width="30"
   height="199.72"
   id="rect1400" />
<rect
   x="151"
   y="65.878998"
   style="display:none;fill:#ffbc38"
   width="30"
   height="161.12"
   id="rect1402" />
<rect
   x="181"
   y="100.98"
   style="display:none;fill:#ffce55"
   width="30"
   height="126.02"
   id="rect1404" />
<rect
   x="211"
   y="65.878998"
   style="display:none;fill:#ffbc38"
   width="30"
   height="161.12"
   id="rect1406" />
<rect
   x="241"
   y="21"
   style="display:none;fill:#ffce55"
   width="30"
   height="206"
   id="rect1408" />
<rect
   x="271"
   y="65.878998"
   style="display:none;fill:#ffbc38"
   width="30"
   height="161.12"
   id="rect1410" />
<rect
   x="301"
   y="100.98"
   style="display:none;fill:#ffce55"
   width="30"
   height="126.02"
   id="rect1412" />
<rect
   x="331"
   y="65.878998"
   style="display:none;fill:#ffbc38"
   width="30"
   height="161.12"
   id="rect1414" />
<rect
   x="361"
   y="27.280001"
   style="display:none;fill:#ffce55"
   width="30"
   height="199.72"
   id="rect1416" />
<rect
   x="391"
   y="68.349998"
   style="display:none;fill:#ffbc38"
   width="30"
   height="158.64999"
   id="rect1418" />
<rect
   x="421"
   y="100.98"
   style="display:none;fill:#ffce55"
   width="30"
   height="126.02"
   id="rect1420" />
<rect
   x="47"
   y="350"
   style="display:none;fill:#735458"
   width="418"
   height="141"
   id="rect1422" />
<g
   id="g1428"
   style="display:none">
	<rect
   x="17"
   y="350"
   style="fill:#8f5040"
   width="30"
   height="141"
   id="rect1424" />
	<rect
   x="465"
   y="350"
   style="fill:#8f5040"
   width="30"
   height="141"
   id="rect1426" />
</g>
<rect
   x="81.779999"
   y="290"
   style="display:none;fill:#ffbf7b"
   width="348.44"
   height="26"
   id="rect1430" />
<rect
   x="130.08"
   y="263.98999"
   style="display:none;fill:#ffdea9"
   width="251.85001"
   height="26"
   id="rect1432" />
<polygon
   style="display:none;fill:#a66856"
   points="37.5,315.995 37.5,289.995 7.5,289.995 7.5,349.995 504.5,349.995 504.5,289.995 474.5,289.995 474.5,315.995 "
   id="polygon1434" />
<rect
   x="474.5"
   y="290"
   style="display:none;fill:#8f5040"
   width="30"
   height="60"
   id="rect1436" />
<rect
   x="133.03"
   y="417"
   style="display:none;fill:#a66856"
   width="245.92999"
   height="74"
   id="rect1438" />
<rect
   x="348.95999"
   y="417"
   style="display:none;fill:#8f5040"
   width="30"
   height="74"
   id="rect1440" />
<rect
   x="112"
   y="387"
   style="display:none;fill:#f3b573"
   width="288"
   height="30"
   id="rect1442" />
<rect
   x="370"
   y="387"
   style="display:none;fill:#f5a257"
   width="30"
   height="30"
   id="rect1444" />

<g
   id="g1448">
</g>
<g
   id="g1450">
</g>
<g
   id="g1452">
</g>
<g
   id="g1454"
   style="display:inline">
</g>
<g
   id="g1456">
</g>
<g
   id="g1458">
</g>
<g
   id="g1460">
</g>
<g
   id="g1462">
</g>
<g
   id="g1464">
</g>
<g
   id="g1466">
</g>
<g
   id="g1468">
</g>
<g
   id="g1470"
   style="display:inline"><g
   id="g1476"
   style="display:inline">
</g>
</g>
<g
   id="g1472">
</g>
<g
   id="g1474"
   style="display:inline">
</g><path
   style="display:inline;fill:#ff0000;stroke-width:1.01449955"
   d="M 0 -1.8671875 L 0 289.99414 C 0 285.85114 3.358 282.49414 7.5 282.49414 L 13.5 282.49414 L 13.5 227 C 13.5 222.857 16.858 219.5 21 219.5 L 53.5 219.5 L 53.5 100.98047 C 53.5 96.837469 56.858 93.480469 61 93.480469 L 83.5 93.480469 L 83.5 68.353516 C 83.5 64.210516 86.858 60.853516 91 60.853516 L 113.5 60.853516 L 113.5 27.277344 C 113.5 23.134344 116.858 19.777344 121 19.777344 L 151 19.777344 C 155.142 19.777344 158.5 23.134344 158.5 27.277344 L 158.5 58.378906 L 181 58.378906 C 185.142 58.378906 188.5 61.735906 188.5 65.878906 L 188.5 93.482422 L 203.5 93.482422 L 203.5 65.878906 C 203.5 61.735906 206.858 58.378906 211 58.378906 L 233.5 58.378906 L 233.5 21 C 233.5 16.857 236.858 13.5 241 13.5 L 271 13.5 C 275.142 13.5 278.5 16.857 278.5 21 L 278.5 58.378906 L 301 58.378906 C 305.142 58.378906 308.5 61.735906 308.5 65.878906 L 308.5 93.482422 L 323.5 93.482422 L 323.5 65.878906 C 323.5 61.735906 326.858 58.378906 331 58.378906 L 353.5 58.378906 L 353.5 27.277344 C 353.5 23.134344 356.858 19.777344 361 19.777344 L 391 19.777344 C 395.142 19.777344 398.5 23.134344 398.5 27.277344 L 398.5 60.853516 L 421 60.853516 C 425.142 60.853516 428.5 64.210516 428.5 68.353516 L 428.5 93.480469 L 451 93.480469 C 455.142 93.480469 458.5 96.837469 458.5 100.98047 L 458.5 219.5 L 491 219.5 C 495.142 219.5 498.5 222.857 498.5 227 L 498.5 282.49414 L 504.5 282.49414 C 508.642 282.49414 512 285.85214 512 289.99414 L 512 349.99414 C 512 354.13714 508.642 357.49414 504.5 357.49414 L 502.5 357.49414 L 502.5 443.125 C 502.5 447.268 499.142 450.625 495 450.625 C 490.858 450.625 487.5 447.268 487.5 443.125 L 487.5 357.5 L 472.5 357.5 L 472.5 483.5 L 487.5 483.5 L 487.5 475 C 487.5 470.857 490.858 467.5 495 467.5 C 499.142 467.5 502.5 470.857 502.5 475 L 502.5 491 C 502.5 495.143 499.142 498.5 495 498.5 L 17 498.5 C 12.858 498.5 9.5 495.143 9.5 491 L 9.5 410.66797 C 9.5 406.52497 12.858 403.16797 17 403.16797 C 21.142 403.16797 24.5 406.52497 24.5 410.66797 L 24.5 483.5 L 39.5 483.5 L 39.5 357.5 L 24.5 357.5 L 24.5 378.33203 C 24.5 382.47503 21.142 385.83203 17 385.83203 C 12.858 385.83203 9.5 382.47503 9.5 378.33203 L 9.5 357.49414 L 7.5 357.49414 C 3.358 357.49414 0 354.13714 0 349.99414 L 0 522.57617 L 519.46484 522.57617 L 519.46484 -1.8671875 L 0 -1.8671875 z M 248.5 28.5 L 248.5 65.878906 L 248.5 219.5 L 263.5 219.5 L 263.5 65.878906 L 263.5 28.5 L 248.5 28.5 z M 128.5 34.777344 L 128.5 68.353516 L 128.5 219.5 L 143.5 219.5 L 143.5 65.878906 L 143.5 34.777344 L 128.5 34.777344 z M 368.5 34.777344 L 368.5 65.878906 L 368.5 219.5 L 383.5 219.5 L 383.5 68.353516 L 383.5 34.777344 L 368.5 34.777344 z M 158.5 73.378906 L 158.5 219.5 L 173.5 219.5 L 173.5 100.98242 L 173.5 73.378906 L 158.5 73.378906 z M 218.5 73.378906 L 218.5 100.98047 L 218.5 219.5 L 233.5 219.5 L 233.5 73.378906 L 218.5 73.378906 z M 278.5 73.378906 L 278.5 219.5 L 293.5 219.5 L 293.5 100.98242 L 293.5 73.378906 L 278.5 73.378906 z M 338.5 73.378906 L 338.5 100.98047 L 338.5 219.5 L 353.5 219.5 L 353.5 73.378906 L 338.5 73.378906 z M 98.5 75.853516 L 98.5 100.98047 L 98.5 219.5 L 113.5 219.5 L 113.5 75.853516 L 98.5 75.853516 z M 398.5 75.853516 L 398.5 219.5 L 413.5 219.5 L 413.5 100.98242 L 413.5 75.853516 L 398.5 75.853516 z M 68.5 108.48047 L 68.5 219.5 L 83.5 219.5 L 83.5 108.48047 L 68.5 108.48047 z M 188.5 108.48047 L 188.5 219.5 L 203.5 219.5 L 203.5 108.48047 L 188.5 108.48047 z M 308.5 108.48047 L 308.5 219.5 L 323.5 219.5 L 323.5 108.48047 L 308.5 108.48047 z M 428.5 108.48047 L 428.5 219.5 L 443.5 219.5 L 443.5 108.48047 L 428.5 108.48047 z M 28.5 234.5 L 28.5 282.49414 L 37.5 282.49414 C 41.642 282.49414 45 285.85114 45 289.99414 L 45 308.49414 L 74.279297 308.49414 L 74.279297 290 C 74.279297 285.857 77.637297 282.5 81.779297 282.5 L 122.57617 282.5 L 122.57617 263.99023 C 122.57617 259.84723 125.93417 256.49023 130.07617 256.49023 L 320 256.49023 C 324.142 256.49023 327.5 259.84723 327.5 263.99023 C 327.5 268.13323 324.142 271.49023 320 271.49023 L 137.57617 271.49023 L 137.57617 282.49023 L 374.42383 282.49023 L 374.42383 271.49023 L 352 271.49023 C 347.858 271.49023 344.5 268.13323 344.5 263.99023 C 344.5 259.84723 347.858 256.49023 352 256.49023 L 381.92578 256.49023 C 386.06778 256.49023 389.42578 259.84723 389.42578 263.99023 L 389.42578 282.5 L 430.2207 282.5 C 434.3627 282.5 437.7207 285.857 437.7207 290 L 437.7207 308.49414 L 467 308.49414 L 467 289.99414 C 467 285.85114 470.358 282.49414 474.5 282.49414 L 483.5 282.49414 L 483.5 234.5 L 28.5 234.5 z M 15 297.49414 L 15 342.49414 L 497 342.49414 L 497 297.49414 L 482 297.49414 L 482 315.99414 C 482 320.13714 478.642 323.49414 474.5 323.49414 L 37.5 323.49414 C 33.358 323.49414 30 320.13714 30 315.99414 L 30 297.49414 L 15 297.49414 z M 89.279297 297.5 L 89.279297 308.49414 L 422.7207 308.49414 L 422.7207 297.5 L 89.279297 297.5 z M 54.5 357.5 L 54.5 483.5 L 125.53516 483.5 L 125.53516 424.5 L 112 424.5 C 107.858 424.5 104.5 421.143 104.5 417 L 104.5 387 C 104.5 382.857 107.858 379.5 112 379.5 L 400 379.5 C 404.142 379.5 407.5 382.857 407.5 387 L 407.5 417 C 407.5 421.143 404.142 424.5 400 424.5 L 386.46484 424.5 L 386.46484 483.5 L 457.5 483.5 L 457.5 357.5 L 54.5 357.5 z M 119.5 394.5 L 119.5 409.5 L 392.5 409.5 L 392.5 394.5 L 119.5 394.5 z M 140.53516 424.5 L 140.53516 483.5 L 371.46484 483.5 L 371.46484 424.5 L 140.53516 424.5 z "
   id="rect1858" />

</svg>